HIERARCHY
ROOT Hips
{
	OFFSET 182.371002 92.491722 19.190800
	CHANNELS 6 Xposition Yposition Zposition Zrotation Yrotation Xrotation 
	JOINT LeftUpLeg
	{
		OFFSET 0.103461 1.857828 10.548504
		CHANNELS 3 Xrotation Yrotation Zrotation
		JOINT LeftLeg
		{
			OFFSET 43.500008 -0.000031 0.000006
			CHANNELS 3 Xrotation Yrotation Zrotation
			JOINT LeftFoot
			{
				OFFSET 42.372200 0.000019 -0.000010
				CHANNELS 3 Xrotation Yrotation Zrotation
				JOINT LeftToe
				{
					OFFSET 17.299999 -0.000000 0.000002
					CHANNELS 3 Xrotation Yrotation Zrotation
					End Site
					{
						OFFSET 0.000000 0.000000 0.000000
					}
				}
			}
		}
	}
	JOINT RightUpLeg
	{
		OFFSET 0.103457 1.857829 -10.548504
		CHANNELS 3 Xrotation Yrotation Zrotation
		JOINT RightLeg
		{
			OFFSET 43.500046 -0.000019 0.000011
			CHANNELS 3 Xrotation Yrotation Zrotation
			JOINT RightFoot
			{
				OFFSET 42.372261 0.000000 0.000008
				CHANNELS 3 Xrotation Yrotation Zrotation
				JOINT RightToe
				{
					OFFSET 17.299990 -0.000006 0.000008
					CHANNELS 3 Xrotation Yrotation Zrotation
					End Site
					{
						OFFSET 0.000000 0.000000 0.000000
					}
				}
			}
		}
	}
	JOINT Spine
	{
		OFFSET 6.901969 -2.603727 -0.000006
		CHANNELS 3 Xrotation Yrotation Zrotation
		JOINT Spine1
		{
			OFFSET 12.588100 -0.000002 0.000002
			CHANNELS 3 Xrotation Yrotation Zrotation
			JOINT Spine2
			{
				OFFSET 12.343195 0.000004 0.000008
				CHANNELS 3 Xrotation Yrotation Zrotation
				JOINT Neck
				{
					OFFSET 25.832905 -0.000008 -0.000002
					CHANNELS 3 Xrotation Yrotation Zrotation
					JOINT Head
					{
						OFFSET 11.766608 0.000010 -0.000008
						CHANNELS 3 Xrotation Yrotation Zrotation
						End Site
						{
							OFFSET 0.000000 0.000000 0.000000
						}
					}
				}
				JOINT LeftShoulder
				{
					OFFSET 19.745903 -1.480370 6.000106
					CHANNELS 3 Xrotation Yrotation Zrotation
					JOINT LeftArm
					{
						OFFSET 11.284119 -0.000006 -0.000014
						CHANNELS 3 Xrotation Yrotation Zrotation
						JOINT LeftForeArm
						{
							OFFSET 33.000050 0.000004 0.000026
							CHANNELS 3 Xrotation Yrotation Zrotation
							JOINT LeftHand
							{
								OFFSET 25.200020 0.000017 0.000004
								CHANNELS 3 Xrotation Yrotation Zrotation
								End Site
								{
									OFFSET 0.000000 0.000000 0.000000
								}
							}
						}
					}
				}
				JOINT RightShoulder
				{
					OFFSET 19.746099 -1.480375 -6.000082
					CHANNELS 3 Xrotation Yrotation Zrotation
					JOINT RightArm
					{
						OFFSET 11.284140 -0.000015 -0.000008
						CHANNELS 3 Xrotation Yrotation Zrotation
						JOINT RightForeArm
						{
							OFFSET 33.000084 0.000016 0.000002
							CHANNELS 3 Xrotation Yrotation Zrotation
							JOINT RightHand
							{
								OFFSET 25.199783 0.000142 0.000437
								CHANNELS 3 Xrotation Yrotation Zrotation
								End Site
								{
									OFFSET 0.000000 0.000000 0.000000
								}
							}
						}
					}
				}
			}
		}
	}
}
MOTION
Frames: 7
Frame Time: 0.033333
76.552490 89.573151 -17.346689 85.238814 -2.010550 0.388200 161.137522 -2.241501 -177.361161 -16.209033 -0.691877 -1.568411 66.777872 0.236954 -2.565490 21.454558 0.003108 0.000017 -162.803761 -2.575806 178.769724 -8.407182 4.309797 4.667330 88.653055 -3.412293 -0.855191 21.454553 -0.003092 -0.000000 7.636948 0.453072 0.073170 5.261862 0.902418 0.166736 4.943737 0.903271 0.161280 12.675744 -7.720780 -2.413508 -17.849950 8.027700 -5.910741 170.273501 -69.957974 8.706608 -13.343259 53.966797 33.610531 -31.275183 -19.041099 1.540102 7.211951 -2.899420 7.518213 -172.190695 75.962714 9.441767 -33.790906 -50.687230 -29.610738 -35.341004 17.006205 -1.472691 2.690726 11.223497 0.207176 
74.045189 89.709267 -16.675970 85.311945 -0.971684 0.525231 161.434267 -0.402893 -177.192497 -18.802524 -0.297459 -1.842658 69.224370 0.715841 -1.875302 21.454558 0.003108 0.000017 -162.154114 -1.250198 179.408866 -10.073061 4.057015 4.497234 88.228053 -3.134359 0.140467 21.454553 -0.003091 0.000000 7.628835 0.093760 0.002504 5.244833 0.187361 0.009227 4.926732 0.187276 0.008091 12.760887 -7.983761 -2.528601 -18.180640 8.661832 -6.305772 171.127480 -69.393568 7.845471 -13.659484 52.900792 34.139464 -30.216146 -18.339411 1.473639 7.098462 -3.390199 7.076423 -172.060211 74.940323 9.569309 -32.637410 -51.749273 -30.128764 -33.153735 16.459110 -1.388169 3.001350 11.571189 0.913325 
71.492416 89.931732 -16.157230 85.154161 -0.807015 0.715555 162.099158 0.032104 -178.522444 -21.129834 -0.114826 -1.049766 71.618003 0.378957 -1.250283 21.454560 0.003108 0.000017 -161.867738 -0.848694 179.985867 -12.634054 3.801385 4.255739 86.705809 -2.816776 1.030891 21.454551 -0.003093 0.000000 7.681571 -0.051199 0.034376 5.350250 -0.103870 0.066363 5.032158 -0.103605 0.066985 12.471426 -8.457373 -2.707784 -17.360664 9.307411 -6.702005 171.390907 -69.452348 7.571838 -14.357278 52.755104 34.078057 -28.872511 -17.775308 1.411498 7.735363 -3.451860 7.290739 -172.003807 75.405329 9.629693 -31.553186 -54.649976 -29.281322 -30.173423 15.947720 -1.293823 3.296784 11.618137 1.676483 
68.962624 90.384453 -15.648800 85.066591 -0.950847 0.358878 163.728814 -0.110107 -179.366642 -21.524441 -0.414339 -0.714475 73.021730 0.480825 -0.209562 21.454557 0.003108 0.000017 -162.251881 -0.352997 -179.222292 -15.970423 3.638067 3.382428 84.283093 -2.019799 1.976365 21.454558 -0.003091 0.000001 7.718468 -0.083813 0.194614 5.423831 -0.176547 0.385109 5.105723 -0.174355 0.386164 12.167414 -8.994224 -2.884953 -16.521767 9.616603 -6.968915 171.383913 -69.871210 7.565377 -14.721721 53.294679 33.882888 -28.259619 -17.684854 1.394261 8.668679 -2.818083 8.165382 -174.494504 76.292052 7.089118 -29.140056 -57.731327 -28.573186 -27.435989 15.286360 -1.200799 4.499411 11.280469 2.559348 
66.584221 90.871490 -15.081140 85.037774 -1.018353 -0.480334 165.780835 -0.181000 179.718670 -20.910747 -0.700689 -0.633863 74.107423 0.656632 0.549635 21.454555 0.003108 0.000017 -163.903776 0.653396 -177.928941 -21.185278 3.446134 1.920228 81.572956 -0.764951 2.871338 21.454553 -0.003091 0.000001 7.748043 -0.113804 0.391344 5.482420 -0.245858 0.776889 5.164346 -0.241299 0.778355 11.691761 -9.484991 -2.969442 -15.229681 9.181668 -6.841981 171.831481 -69.754161 7.107818 -14.556436 53.260565 33.949264 -28.332921 -17.528801 1.385694 9.163371 -2.771148 8.656489 -176.162791 77.030074 5.393303 -27.084038 -59.717847 -29.101500 -25.163684 14.128551 -1.089111 5.566109 9.854242 4.360752 
64.250717 91.306236 -14.475510 85.068797 -0.823748 -1.198448 168.022667 0.103104 179.348145 -19.683190 -1.173774 -0.830555 74.961640 0.997279 1.228177 21.454558 0.003108 0.000017 -166.522088 2.049698 -175.888013 -27.905047 3.080100 0.380220 78.331143 0.416995 2.960419 21.454551 -0.003092 -0.000000 7.742159 -0.199653 0.436603 5.469922 -0.419542 0.863340 5.151847 -0.414458 0.865853 11.674282 -9.914347 -2.743411 -14.613646 8.890505 -6.473582 172.868618 -69.672315 6.041091 -13.820358 53.007193 35.065826 -28.889737 -17.547789 1.397335 9.262793 -2.784652 7.916905 -178.256831 77.313309 3.260482 -25.175384 -60.525523 -31.516214 -23.482645 13.293454 -1.010439 5.654899 5.843509 4.572301 
62.013062 91.610497 -13.908880 84.967116 -0.509419 -1.905045 170.336708 0.584106 -179.984692 -18.370685 -1.866563 -1.618043 75.803741 1.687941 1.703179 21.454557 0.003108 0.000017 -170.007780 3.831497 -173.795133 -36.179287 2.414122 -1.046074 75.070418 1.884490 4.142955 21.454551 -0.003092 -0.000000 7.764205 -0.301505 0.416386 5.513422 -0.622335 0.818027 5.195332 -0.617520 0.821766 11.646208 -10.311330 -2.342743 -14.227135 8.831479 -6.024725 173.800393 -69.896174 5.073698 -13.199167 52.808595 36.397914 -29.592901 -17.339753 1.397572 8.675341 -3.315719 6.885188 -177.392908 77.259555 4.141035 -23.763362 -60.786143 -33.480829 -22.597906 13.123975 -0.987163 4.415792 1.426581 0.223232 
